<svg version="1.1" id="Layer_1" xmlns="http://www.w3.org/2000/svg" xmlns:xlink="http://www.w3.org/1999/xlink" x="0px" y="0px"
	 width="100%" viewBox="0 0 944 264" enable-background="new 0 0 944 264" xml:space="preserve">
<path fill="#000000" opacity="1.000000" stroke="none" 
	d="
M134.000000,265.000000 
	C132.611115,265.000000 131.222214,265.000000 129.431091,264.554352 
	C129.004471,262.445251 129.099777,260.769989 128.936996,259.120178 
	C127.494415,244.500153 125.701553,229.879578 128.018173,215.195831 
	C129.342850,206.799438 134.401474,200.829987 144.169647,207.749908 
	C145.764740,208.879898 147.231186,210.189743 148.798782,211.360672 
	C153.188004,214.639282 158.456985,214.908981 163.087265,212.130920 
	C167.954849,209.210495 171.501343,202.366760 170.824310,197.671158 
	C169.979111,191.809326 166.841751,187.422745 161.561020,185.315430 
	C155.052963,182.718338 148.785080,183.546143 143.501328,188.876953 
	C138.722061,193.698776 134.247086,193.014328 130.765778,187.113632 
	C129.940186,185.714279 129.436462,184.125046 128.813019,182.185120 
	C128.895981,170.292740 128.971252,158.838409 128.962708,147.384125 
	C128.962082,146.546082 128.354843,145.708481 128.025375,144.929565 
	C128.021118,144.988449 128.138947,144.995941 127.923065,144.606018 
	C114.071243,144.145813 100.435310,144.060822 86.799309,144.049271 
	C86.128654,144.048691 85.457451,144.689514 84.698883,144.956787 
	C84.611267,144.881927 84.441483,145.037811 84.074463,145.017273 
	C83.467186,145.044968 83.226921,145.093201 82.632896,145.226624 
	C76.633766,147.309326 76.584656,147.802841 80.456314,152.043900 
	C86.370476,158.522339 89.323273,171.883682 79.153374,180.385345 
	C68.861519,188.988968 59.501347,189.595352 49.431320,180.974899 
	C41.835968,174.472916 40.802113,163.216354 46.998604,155.488800 
	C48.616142,153.471603 50.279579,151.365280 51.258469,149.022659 
	C51.660809,148.059814 50.526604,145.350601 49.718075,145.177322 
	C46.227497,144.429199 42.583290,143.924393 39.022923,144.060684 
	C26.342451,144.546082 13.673385,145.329437 1.000000,146.000000 
	C1.000000,143.958328 1.000000,141.916672 1.462734,139.438995 
	C4.918881,139.005051 7.937445,139.259888 10.901314,138.965012 
	C23.134420,137.747879 35.315056,135.909164 47.660820,137.972061 
	C56.957565,139.525513 61.009453,144.512939 55.943455,153.166000 
	C54.963177,154.840408 53.745224,156.388412 52.532806,157.911880 
	C48.357117,163.158829 47.766998,167.742294 51.043064,173.164474 
	C54.182030,178.359726 59.531956,180.996765 65.044823,180.679581 
	C70.875069,180.344147 76.175873,177.519455 78.548225,171.079819 
	C80.874039,164.766510 78.697014,159.929626 74.817192,155.124878 
	C73.390686,153.358307 72.328461,150.882050 72.110992,148.631805 
	C71.429443,141.579117 77.000290,140.379105 82.491585,138.907074 
	C96.513458,138.986542 110.073029,139.023041 123.632080,138.955582 
	C125.122261,138.948166 126.609489,138.344437 128.058167,138.019196 
	C128.018250,138.021103 128.023300,138.100876 128.414322,137.891464 
	C128.870987,118.742798 128.946625,99.803558 128.960831,80.864265 
	C128.961334,80.199471 128.351059,79.534218 127.866554,78.544785 
	C124.407005,75.997665 121.949364,77.540703 119.568123,79.928116 
	C112.708427,86.805588 100.689865,88.229836 93.623589,82.855896 
	C86.156654,77.177254 84.803947,68.897316 86.191849,60.658325 
	C88.879227,44.705391 104.156311,38.343784 117.085907,46.631691 
	C119.794044,48.367615 122.337059,50.361153 125.971985,52.963127 
	C126.787575,50.210213 127.381218,48.206448 128.372253,45.986065 
	C128.846420,30.846298 128.923203,15.923149 129.000000,1.000000 
	C130.388885,1.000000 131.777786,1.000000 133.583313,1.468657 
	C133.999969,12.521825 133.960541,23.106647 134.044693,33.690491 
	C134.056595,35.187965 134.670425,36.680653 134.980530,38.594337 
	C134.638229,42.076698 134.470978,45.164864 133.973465,48.198875 
	C132.845306,55.078739 125.618935,62.193268 118.063393,55.572311 
	C116.978127,54.621277 115.685837,53.910675 114.528198,53.037315 
	C109.844528,49.503784 104.622459,48.780373 99.338768,50.979050 
	C94.485474,52.998619 90.289635,60.807266 91.027679,65.994453 
	C91.884109,72.013618 95.237968,76.507072 100.806870,78.957550 
	C107.214348,81.777016 111.953842,78.602379 116.353935,74.198013 
	C122.221985,68.324265 131.929779,69.712410 133.801651,76.652184 
	C134.513718,79.292183 134.622498,82.094917 134.616760,85.046555 
	C134.155060,102.374168 134.074631,119.478691 134.050690,136.583313 
	C134.049988,137.088806 134.643753,137.595139 134.962875,138.066238 
	C134.965408,138.031403 134.895676,138.035690 135.107483,138.425156 
	C150.226639,138.874802 165.133972,138.947083 180.041351,138.955933 
	C180.717407,138.956345 181.393814,138.383926 182.439880,138.061829 
	C187.265030,136.472870 188.086136,133.602219 184.432510,130.990738 
	C176.304688,125.181267 175.272186,112.056068 180.144531,104.846817 
	C185.305115,97.211098 193.114594,94.465492 202.120102,96.069214 
	C209.226181,97.334702 215.239502,100.435989 218.255966,107.705902 
	C221.278992,114.991608 220.041275,121.573509 215.635468,127.837570 
	C213.915329,130.283203 212.311005,132.810272 209.864838,136.485962 
	C214.001266,137.127213 216.943909,137.583389 220.099701,138.428192 
	C229.530258,138.821854 238.747681,138.826889 248.428162,138.920319 
	C254.479767,139.008698 260.068298,139.008698 265.833008,139.008698 
	C265.833008,120.726898 265.833008,102.869820 265.914185,84.549477 
	C265.958374,69.624062 265.921417,55.161915 265.958954,40.594818 
	C266.033447,40.489868 265.955109,40.244682 266.342224,40.011345 
	C266.819550,26.852005 266.909790,13.926003 267.000000,1.000000 
	C492.880859,1.000000 718.761719,1.000000 945.000000,1.000000 
	C945.000000,46.689369 945.000000,92.379677 944.648682,138.706619 
	C941.239380,134.401672 938.983093,128.655746 934.978271,124.664246 
	C921.116455,110.848709 903.800842,108.899773 885.492432,112.320602 
	C871.008728,115.026817 860.879272,123.535675 856.188477,137.440201 
	C853.288391,146.036636 853.332336,155.075302 854.849243,164.241257 
	C857.222656,178.582901 865.326050,187.995056 878.445007,192.847977 
	C887.865784,196.332886 897.674255,197.884537 908.051697,196.131989 
	C922.701416,193.657928 936.254028,187.132690 942.104675,172.143341 
	C942.587158,170.907166 944.012634,170.039093 945.000000,169.000000 
	C945.000000,200.982224 945.000000,232.964432 945.000000,265.000000 
	C719.309998,265.000000 493.620026,265.000000 267.465027,264.531342 
	C267.000000,226.284637 267.014526,188.506577 266.947266,150.728653 
	C266.944580,149.206833 266.168243,147.686401 265.463074,146.083282 
	C264.778992,146.057312 264.384186,146.113388 263.529297,146.097198 
	C258.403229,145.992996 253.737335,145.961060 248.855896,145.547409 
	C238.795258,145.168808 228.950150,145.171936 218.688080,145.097076 
	C215.895874,144.557770 213.427475,144.366699 211.162476,143.585709 
	C203.619354,140.984818 204.759918,131.027924 209.633591,125.919533 
	C212.912659,122.482559 214.570557,118.499428 213.861496,113.925323 
	C212.962631,108.126892 206.469299,102.782204 200.204803,101.983444 
	C192.695908,101.026001 186.709778,104.888786 184.359055,109.302620 
	C181.473358,114.720901 183.346024,121.905998 188.414505,125.990120 
	C194.885391,131.204254 193.769287,141.075348 185.456573,144.111511 
	C169.457779,144.034897 153.919342,143.994156 138.381134,144.037476 
	C137.224442,144.040695 136.069443,144.646591 134.970612,145.023468 
	C135.027588,145.074600 135.132339,144.962936 134.891342,145.000427 
	C134.293259,145.171265 134.134674,145.427322 134.081955,146.155579 
	C134.328339,147.612350 134.667374,148.719589 134.616852,150.048859 
	C134.151749,157.416290 134.003418,164.562180 134.050583,171.706802 
	C134.062729,173.546143 134.690048,175.381424 134.996689,177.614410 
	C135.745316,180.237534 136.532028,182.464844 137.318726,184.692139 
	C139.063583,183.781876 140.956085,183.074326 142.529266,181.928360 
	C152.584915,174.603409 166.358032,176.370422 173.160645,186.704300 
	C180.236969,197.454025 176.797119,208.462265 168.344833,215.991287 
	C160.704727,222.796799 152.614380,222.427353 144.500137,216.043518 
	C142.609924,214.556396 140.551514,212.971359 138.316879,212.363007 
	C137.171173,212.051117 134.391113,213.600159 134.200409,214.645752 
	C133.410568,218.976501 133.040955,223.437256 133.059296,227.848022 
	C133.080460,232.930603 133.708633,238.008728 134.008652,243.092606 
	C134.356461,248.986313 134.706100,254.881912 134.889267,260.781860 
	C134.932587,262.177338 134.314072,263.593414 134.000000,265.000000 
M346.971527,193.064224 
	C347.004272,181.725403 347.037048,170.386566 347.959869,158.993790 
	C354.823669,157.448563 358.340546,160.817703 360.952637,166.858047 
	C363.787506,173.413666 367.507568,179.592224 370.943146,185.879730 
	C372.467651,188.669769 374.241577,191.323532 376.325104,194.814514 
	C380.968842,194.875763 385.612488,194.974136 390.256378,194.990112 
	C398.558655,195.018661 406.861786,195.043167 415.162231,194.916763 
	C415.882660,194.905777 419.431763,196.438629 416.794586,192.329224 
	C408.471222,179.494659 400.147858,166.660095 391.704376,153.640320 
	C403.290833,148.752441 409.721130,140.387299 411.608948,128.811890 
	C413.637787,116.371994 410.764252,105.097237 401.057251,96.579338 
	C393.165833,89.654556 383.301819,87.405136 372.599915,86.122391 
	C352.209930,86.082924 331.819946,86.032356 311.429993,86.047157 
	C310.665436,86.047714 309.901306,86.683304 309.025421,87.951530 
	C309.063446,123.295464 309.101471,158.639404 309.354004,194.839340 
	C321.247681,194.891068 333.141357,194.957642 345.035004,194.951385 
	C345.639343,194.951065 346.243347,194.323761 346.971527,193.064224 
M789.997375,139.981308 
	C789.996826,149.344955 789.960999,158.708893 790.036011,168.071915 
	C790.046570,169.388733 790.598816,170.701187 790.976013,172.677399 
	C790.110535,180.957947 794.477234,187.174500 800.836304,190.723495 
	C816.002869,199.187943 832.009888,198.121475 847.820251,192.017776 
	C848.873169,191.611298 849.853943,189.471497 849.845398,188.144440 
	C849.816895,183.711746 849.221924,179.286377 849.032227,174.850143 
	C848.776794,168.880524 848.811096,169.172623 843.044861,170.336441 
	C835.172241,171.925430 830.548279,171.404968 828.864746,164.797897 
	C828.864746,156.247162 828.864746,147.696442 828.864746,139.020248 
	C833.163208,139.020248 836.647583,139.158112 840.115479,138.977859 
	C843.038452,138.825928 845.942322,138.304459 848.975525,137.029968 
	C848.980408,134.557739 849.075012,132.081772 848.971802,129.614059 
	C848.742798,124.137817 848.414551,118.665718 847.180481,113.077789 
	C845.371643,113.062256 843.556396,113.138527 841.755249,113.012894 
	C837.447449,112.712418 833.146301,112.316864 828.986267,111.033569 
	C828.989441,102.897186 829.002869,94.760780 828.986511,86.624435 
	C828.983521,85.128716 829.477295,82.752220 826.007874,84.967155 
	C815.419067,87.945915 804.874573,91.100403 794.212219,93.787514 
	C791.323669,94.515472 790.083252,95.696892 790.069092,98.449455 
	C790.046387,102.866516 790.063049,107.283775 790.063049,111.873146 
	C785.673035,112.299385 781.938660,112.661964 777.803772,112.317390 
	C777.803772,121.163200 777.803772,130.009003 777.803772,139.049622 
	C781.713013,139.049622 785.830872,139.049622 789.997375,139.981308 
M648.854492,194.612534 
	C648.856506,180.071045 648.858459,165.529556 649.232727,150.399277 
	C655.231323,139.870377 664.760925,141.301666 674.664307,143.647827 
	C675.833130,134.289108 677.043518,125.560585 677.893982,116.797142 
	C678.028809,115.407471 676.930725,113.277115 675.739807,112.482460 
	C668.948608,107.950851 654.412659,112.398491 650.840942,119.720955 
	C649.290527,122.899445 647.258789,125.843132 644.837036,129.917343 
	C644.837036,124.818901 644.837036,120.868584 644.968201,116.026917 
	C644.968201,114.767776 644.968201,113.508629 644.968201,112.010300 
	C633.572449,112.010300 622.522278,111.998764 611.472412,112.052406 
	C611.030029,112.054558 610.590576,112.674843 610.027954,113.936531 
	C610.068115,140.619247 610.108276,167.301956 610.371765,194.837921 
	C622.918762,194.840805 635.465698,194.843704 648.854492,194.612534 
M507.896088,159.503220 
	C507.866302,159.317978 507.836548,159.132736 507.950165,158.113159 
	C511.656281,142.485336 504.642029,124.190323 488.477203,116.230125 
	C473.297913,108.755219 457.372192,108.980278 441.782471,115.184502 
	C432.587952,118.843628 426.053497,125.940834 422.552246,135.106705 
	C419.205383,143.868271 418.108551,153.065414 419.824890,162.561874 
	C420.990234,169.009872 422.777252,175.140442 426.770538,180.278915 
	C437.002502,193.445145 451.814148,196.663757 467.157898,196.815308 
	C476.732086,196.909866 486.323364,194.500610 494.774780,189.209961 
	C501.000336,185.312698 505.582825,180.263016 506.988647,172.562302 
	C501.082733,170.743668 495.601929,168.436554 489.894531,167.476440 
	C484.427551,166.556747 478.063538,160.080109 473.303619,168.882736 
	C473.245209,168.990784 472.986115,168.972610 472.848236,169.057907 
	C465.131744,173.831238 459.642639,171.370163 456.834503,161.080093 
	C472.332306,161.054092 487.830231,161.053635 503.327637,160.961395 
	C504.830566,160.952438 506.330109,160.375580 507.896088,159.503220 
M682.021545,113.935646 
	C682.011108,132.468292 681.984375,151.000992 682.029358,169.533478 
	C682.032166,170.696518 682.595947,171.858170 682.986206,173.728165 
	C682.520081,179.036102 684.278320,183.699890 687.331909,187.890533 
	C695.825500,199.546494 721.465027,199.189362 729.967651,188.524887 
	C731.955322,186.031860 734.012024,183.593933 736.962646,180.004608 
	C736.962646,183.200317 737.000183,185.094467 736.953064,186.986511 
	C736.895386,189.301147 736.766663,191.614014 737.166077,194.702438 
	C748.731812,194.702438 760.297607,194.702438 771.737183,194.702438 
	C771.737183,167.007706 771.737183,139.612686 771.737183,112.236542 
	C758.739990,112.236542 746.002563,112.236542 733.005249,112.236542 
	C733.005249,127.091110 732.996643,141.713013 733.039429,156.334717 
	C733.041016,156.870789 733.545593,157.405380 733.935425,158.409286 
	C733.935425,158.409286 733.982422,158.890671 733.520935,159.075836 
	C733.197021,159.271378 733.066650,159.555618 732.992920,160.679855 
	C732.490112,164.660126 730.234863,167.036880 726.359619,167.935181 
	C722.860046,168.746399 722.014893,166.027557 720.886230,162.871353 
	C720.886230,145.957703 720.886230,129.044052 720.886230,112.009071 
	C708.419678,112.009071 696.439636,111.990555 684.460022,112.051926 
	C683.684753,112.055885 682.912598,112.675056 682.021545,113.935646 
M599.997803,180.211121 
	C600.566040,178.680740 600.984558,177.072601 601.731689,175.635193 
	C603.659058,171.926651 602.427551,170.248108 598.542297,169.132309 
	C589.474976,166.528290 580.512390,163.557022 571.523438,160.684280 
	C569.176270,159.934158 567.327026,158.581421 567.677307,163.137878 
	C567.956238,166.765610 565.410217,170.331253 561.470520,170.814987 
	C557.946289,171.247711 554.280640,169.705292 554.109497,165.343094 
	C553.802551,157.515198 553.622559,149.637711 554.255798,141.851410 
	C554.400024,140.077362 557.856201,138.061508 560.178528,137.101669 
	C563.268005,135.824738 565.116089,138.317963 566.108459,140.843567 
	C567.108765,143.389221 567.555725,146.152267 568.413940,149.473541 
	C578.920166,146.365631 589.743286,143.266174 600.462708,139.842056 
	C601.591614,139.481461 602.782776,137.191071 602.746521,135.827881 
	C602.697632,133.991272 601.680969,132.076508 600.739502,130.384583 
	C595.017517,120.101929 586.004028,115.021240 574.613281,112.614777 
	C559.421326,109.405258 545.090576,110.446709 531.297363,117.829231 
	C522.407959,122.587082 517.758179,130.517761 516.046204,139.822937 
	C514.736877,146.939499 515.154968,154.394318 515.026489,161.702560 
	C514.863770,170.961609 518.532593,178.836426 525.336365,184.810638 
	C536.742859,194.826309 550.533630,196.752625 565.272217,196.212082 
	C579.039368,195.707169 590.654480,191.496338 599.997803,180.211121 
z"/>
<path fill="#ECB856" opacity="1.000000" stroke="none" 
	d="
M219.886566,138.039581 
	C216.943909,137.583389 214.001266,137.127213 209.864838,136.485962 
	C212.311005,132.810272 213.915329,130.283203 215.635468,127.837570 
	C220.041275,121.573509 221.278992,114.991608 218.255966,107.705902 
	C215.239502,100.435989 209.226181,97.334702 202.120102,96.069214 
	C193.114594,94.465492 185.305115,97.211098 180.144531,104.846817 
	C175.272186,112.056068 176.304688,125.181267 184.432510,130.990738 
	C188.086136,133.602219 187.265030,136.472870 181.970184,138.009460 
	C165.718994,137.994278 150.307327,138.014984 134.895676,138.035706 
	C134.895676,138.035690 134.965408,138.031403 135.072922,137.602142 
	C135.122375,119.723083 135.064301,102.273277 135.006226,84.823479 
	C134.622498,82.094917 134.513718,79.292183 133.801651,76.652184 
	C131.929779,69.712410 122.221985,68.324265 116.353935,74.198013 
	C111.953842,78.602379 107.214348,81.777016 100.806870,78.957550 
	C95.237968,76.507072 91.884109,72.013618 91.027679,65.994453 
	C90.289635,60.807266 94.485474,52.998619 99.338768,50.979050 
	C104.622459,48.780373 109.844528,49.503784 114.528198,53.037315 
	C115.685837,53.910675 116.978127,54.621277 118.063393,55.572311 
	C125.618935,62.193268 132.845306,55.078739 133.973465,48.198875 
	C134.470978,45.164864 134.638229,42.076698 135.060760,38.119377 
	C135.110748,25.150421 135.055374,13.075211 135.000000,1.000000 
	C177.687561,1.000000 220.375122,1.000000 263.641388,1.098532 
	C264.220093,1.197065 264.636566,1.239488 264.636566,1.239488 
	C264.636566,1.239488 265.000000,1.000000 265.000000,1.000000 
	C265.000000,1.000000 265.500000,1.000000 265.682739,1.382069 
	C265.745544,2.527410 265.625580,3.290683 265.210327,4.266472 
	C264.611359,6.227844 264.044312,7.976430 264.042542,9.725591 
	C263.998749,52.460129 264.015076,95.194733 263.552490,137.961121 
	C258.024628,138.052261 252.964844,138.111618 247.443832,138.142090 
	C237.950592,138.088669 228.918579,138.064117 219.886566,138.039581 
z"/>
<path fill="#39B3ED" opacity="1.000000" stroke="none" 
	d="
M127.974869,46.202682 
	C127.381218,48.206448 126.787575,50.210213 125.971985,52.963127 
	C122.337059,50.361153 119.794044,48.367615 117.085907,46.631691 
	C104.156311,38.343784 88.879227,44.705391 86.191849,60.658325 
	C84.803947,68.897316 86.156654,77.177254 93.623589,82.855896 
	C100.689865,88.229836 112.708427,86.805588 119.568123,79.928116 
	C121.949364,77.540703 124.407005,75.997665 127.806580,79.018539 
	C127.944763,99.244759 127.984032,118.672813 128.023300,138.100876 
	C128.023300,138.100876 128.018250,138.021103 127.585762,137.967499 
	C113.839027,137.909042 100.524605,137.870300 87.210754,137.940735 
	C85.482018,137.949875 83.756264,138.522247 82.029129,138.833710 
	C77.000290,140.379105 71.429443,141.579117 72.110992,148.631805 
	C72.328461,150.882050 73.390686,153.358307 74.817192,155.124878 
	C78.697014,159.929626 80.874039,164.766510 78.548225,171.079819 
	C76.175873,177.519455 70.875069,180.344147 65.044823,180.679581 
	C59.531956,180.996765 54.182030,178.359726 51.043064,173.164474 
	C47.766998,167.742294 48.357117,163.158829 52.532806,157.911880 
	C53.745224,156.388412 54.963177,154.840408 55.943455,153.166000 
	C61.009453,144.512939 56.957565,139.525513 47.660820,137.972061 
	C35.315056,135.909164 23.134420,137.747879 10.901314,138.965012 
	C7.937445,139.259888 4.918881,139.005051 1.462734,139.001495 
	C1.000000,93.076057 1.000000,47.152111 1.000000,1.000000 
	C43.020618,1.000000 85.041649,1.000000 127.507690,1.468150 
	C127.960083,16.691761 127.967468,31.447222 127.974869,46.202682 
z"/>
<path fill="#39B3ED" opacity="1.000000" stroke="none" 
	d="
M135.006393,149.826843 
	C134.667374,148.719589 134.328339,147.612350 134.247025,145.994095 
	C134.504730,145.483093 134.657776,145.031235 134.657776,145.031235 
	C134.657776,145.031235 135.132339,144.962936 135.132339,144.962936 
	C135.132339,144.962936 135.027588,145.074600 135.435471,145.124512 
	C150.110748,145.172791 164.378464,145.217606 178.645264,145.124634 
	C181.071136,145.108826 183.493164,144.502014 185.916962,144.168243 
	C193.769287,141.075348 194.885391,131.204254 188.414505,125.990120 
	C183.346024,121.905998 181.473358,114.720901 184.359055,109.302620 
	C186.709778,104.888786 192.695908,101.026001 200.204803,101.983444 
	C206.469299,102.782204 212.962631,108.126892 213.861496,113.925323 
	C214.570557,118.499428 212.912659,122.482559 209.633591,125.919533 
	C204.759918,131.027924 203.619354,140.984818 211.162476,143.585709 
	C213.427475,144.366699 215.895874,144.557770 219.043640,145.280716 
	C229.567932,145.671265 239.319672,145.800201 249.071426,145.929123 
	C253.737335,145.961060 258.403229,145.992996 263.531281,146.555054 
	C263.995605,186.390137 263.997803,225.695068 264.000000,265.000000 
	C220.979111,265.000000 177.958206,265.000000 134.468658,265.000000 
	C134.314072,263.593414 134.932587,262.177338 134.889267,260.781860 
	C134.706100,254.881912 134.356461,248.986313 134.008652,243.092606 
	C133.708633,238.008728 133.080460,232.930603 133.059296,227.848022 
	C133.040955,223.437256 133.410568,218.976501 134.200409,214.645752 
	C134.391113,213.600159 137.171173,212.051117 138.316879,212.363007 
	C140.551514,212.971359 142.609924,214.556396 144.500137,216.043518 
	C152.614380,222.427353 160.704727,222.796799 168.344833,215.991287 
	C176.797119,208.462265 180.236969,197.454025 173.160645,186.704300 
	C166.358032,176.370422 152.584915,174.603409 142.529266,181.928360 
	C140.956085,183.074326 139.063583,183.781876 137.318726,184.692139 
	C136.532028,182.464844 135.745316,180.237534 135.073898,177.135574 
	C135.128250,167.449554 135.067322,158.638199 135.006393,149.826843 
z"/>
<path fill="#1D68A5" opacity="1.000000" stroke="none" 
	d="
M1.000000,146.468658 
	C13.673385,145.329437 26.342451,144.546082 39.022923,144.060684 
	C42.583290,143.924393 46.227497,144.429199 49.718075,145.177322 
	C50.526604,145.350601 51.660809,148.059814 51.258469,149.022659 
	C50.279579,151.365280 48.616142,153.471603 46.998604,155.488800 
	C40.802113,163.216354 41.835968,174.472916 49.431320,180.974899 
	C59.501347,189.595352 68.861519,188.988968 79.153374,180.385345 
	C89.323273,171.883682 86.370476,158.522339 80.456314,152.043900 
	C76.584656,147.802841 76.633766,147.309326 82.771439,145.435074 
	C83.525925,145.763474 83.788101,145.968597 84.406952,146.371246 
	C99.093719,146.706467 113.423805,146.844147 127.828354,147.446411 
	C127.915062,150.729202 127.869209,153.549103 127.950356,156.365341 
	C128.202576,165.118683 128.502975,173.870651 128.784683,182.623154 
	C129.436462,184.125046 129.940186,185.714279 130.765778,187.113632 
	C134.247086,193.014328 138.722061,193.698776 143.501328,188.876953 
	C148.785080,183.546143 155.052963,182.718338 161.561020,185.315430 
	C166.841751,187.422745 169.979111,191.809326 170.824310,197.671158 
	C171.501343,202.366760 167.954849,209.210495 163.087265,212.130920 
	C158.456985,214.908981 153.188004,214.639282 148.798782,211.360672 
	C147.231186,210.189743 145.764740,208.879898 144.169647,207.749908 
	C134.401474,200.829987 129.342850,206.799438 128.018173,215.195831 
	C125.701553,229.879578 127.494415,244.500153 128.936996,259.120178 
	C129.099777,260.769989 129.004471,262.445251 129.014435,264.554352 
	C86.409027,265.000000 43.818054,265.000000 1.000000,265.000000 
	C1.000000,225.646057 1.000000,186.291687 1.000000,146.468658 
z"/>
<path fill="#1E69A5" opacity="1.000000" stroke="none" 
	d="
M945.000000,168.531342 
	C944.012634,170.039093 942.587158,170.907166 942.104675,172.143341 
	C936.254028,187.132690 922.701416,193.657928 908.051697,196.131989 
	C897.674255,197.884537 887.865784,196.332886 878.445007,192.847977 
	C865.326050,187.995056 857.222656,178.582901 854.849243,164.241257 
	C853.332336,155.075302 853.288391,146.036636 856.188477,137.440201 
	C860.879272,123.535675 871.008728,115.026817 885.492432,112.320602 
	C903.800842,108.899773 921.116455,110.848709 934.978271,124.664246 
	C938.983093,128.655746 941.239380,134.401672 944.648682,139.171631 
	C945.000000,148.687561 945.000000,158.375122 945.000000,168.531342 
M901.374634,170.116486 
	C904.279053,168.084183 906.667358,165.486267 906.828186,161.879425 
	C907.067383,156.514145 907.087097,151.092056 906.566589,145.755981 
	C906.201782,142.016083 904.649963,138.245712 900.464294,137.170609 
	C896.330627,136.108841 893.785583,139.269470 893.524231,142.429520 
	C892.895935,150.029953 892.767334,157.760757 893.489319,165.338699 
	C893.766663,168.248764 896.063843,172.095428 901.374634,170.116486 
z"/>
<path fill="#2BAEEC" opacity="1.000000" stroke="none" 
	d="
M264.333313,265.000000 
	C263.997803,225.695068 263.995605,186.390137 263.991394,146.627335 
	C264.384186,146.113388 264.778992,146.057312 265.462524,146.540375 
	C265.748993,177.731018 265.728241,208.382553 265.756256,239.034042 
	C265.764191,247.689438 265.914825,256.344696 266.000000,265.000000 
	C265.555542,265.000000 265.111115,265.000000 264.333313,265.000000 
z"/>
<path fill="#F8FCFE" opacity="1.000000" stroke="none" 
	d="
M266.250000,265.000000 
	C265.914825,256.344696 265.764191,247.689438 265.756256,239.034042 
	C265.728241,208.382553 265.748993,177.731018 265.751831,146.622406 
	C266.168243,147.686401 266.944580,149.206833 266.947266,150.728653 
	C267.014526,188.506577 267.000000,226.284637 267.000000,264.531342 
	C267.000000,265.000000 266.500000,265.000000 266.250000,265.000000 
z"/>
<path fill="#DEF2FC" opacity="1.000000" stroke="none" 
	d="
M128.372253,45.986065 
	C127.967468,31.447222 127.960083,16.691761 127.976349,1.468150 
	C128.000000,1.000000 128.500000,1.000000 128.750000,1.000000 
	C128.923203,15.923149 128.846420,30.846298 128.372253,45.986065 
z"/>
<path fill="#FEFEFE" opacity="1.000000" stroke="none" 
	d="
M265.505615,4.053958 
	C265.625580,3.290683 265.745544,2.527410 265.932739,1.382069 
	C266.000000,1.000000 266.500000,1.000000 266.750000,1.000000 
	C266.909790,13.926003 266.819550,26.852005 266.243469,39.533249 
	C265.673615,27.543650 265.589630,15.798804 265.505615,4.053958 
z"/>
<path fill="#FEFEFE" opacity="1.000000" stroke="none" 
	d="
M134.750000,1.000000 
	C135.055374,13.075211 135.110748,25.150421 135.085876,37.700596 
	C134.670425,36.680653 134.056595,35.187965 134.044693,33.690491 
	C133.960541,23.106647 133.999969,12.521825 133.999985,1.468657 
	C134.000000,1.000000 134.500000,1.000000 134.750000,1.000000 
z"/>
<path fill="#EAB144" opacity="1.000000" stroke="none" 
	d="
M264.750000,1.000000 
	C265.000000,1.000000 264.636566,1.239488 264.636566,1.239488 
	C264.636566,1.239488 264.220093,1.197065 264.110046,1.098532 
	C264.000000,1.000000 264.500000,1.000000 264.750000,1.000000 
z"/>
<path fill="#1D68A5" opacity="1.000000" stroke="none" 
	d="
M373.012085,86.884613 
	C383.301819,87.405136 393.165833,89.654556 401.057251,96.579338 
	C410.764252,105.097237 413.637787,116.371994 411.608948,128.811890 
	C409.721130,140.387299 403.290833,148.752441 391.704376,153.640320 
	C400.147858,166.660095 408.471222,179.494659 416.698456,193.006439 
	C403.035645,193.802155 389.468994,193.920639 375.902313,194.039139 
	C374.241577,191.323532 372.467651,188.669769 370.943146,185.879730 
	C367.507568,179.592224 363.787506,173.413666 360.952637,166.858047 
	C358.340546,160.817703 354.823669,157.448563 347.233337,159.321762 
	C346.311340,170.782043 346.115845,181.914368 345.751831,193.158569 
	C345.369476,193.439255 345.185486,193.635941 344.565002,193.928345 
	C333.055664,193.951523 322.012604,193.906845 310.848145,193.703842 
	C310.548157,193.345169 310.343231,193.176971 310.055054,192.572662 
	C310.022034,157.393692 310.045837,122.682976 310.246155,87.852852 
	C310.645874,87.552025 310.830536,87.337486 311.443604,87.030754 
	C332.277679,86.942650 352.644897,86.913635 373.012085,86.884613 
M346.972595,121.597244 
	C346.972595,125.654312 346.972595,129.711380 346.972595,133.999542 
	C350.817657,133.999542 353.824005,134.271225 356.759369,133.930817 
	C360.434784,133.504608 364.193176,132.975891 367.655212,131.753555 
	C371.265350,130.478928 373.137512,127.710495 373.147858,123.417290 
	C373.157898,119.255859 371.369415,116.576050 367.839783,115.527451 
	C363.522491,114.244843 358.978882,113.335861 354.490082,113.105873 
	C346.999390,112.722069 346.984985,113.003075 346.972595,121.597244 
z"/>
<path fill="#1D68A5" opacity="1.000000" stroke="none" 
	d="
M733.982422,158.890671 
	C733.982422,158.890671 733.935425,158.409286 733.918701,157.841888 
	C733.976257,156.834778 734.050598,156.395035 734.336060,155.605347 
	C734.691040,141.209000 734.834717,127.162621 735.444946,113.054855 
	C747.479187,112.993477 759.046936,112.993477 770.716919,112.993477 
	C770.716919,140.251862 770.716919,166.907852 770.716919,193.927643 
	C759.170776,193.927643 747.919739,193.927643 736.668640,193.927643 
	C736.766663,191.614014 736.895386,189.301147 736.953064,186.986511 
	C737.000183,185.094467 736.962646,183.200317 736.962646,180.004608 
	C734.012024,183.593933 731.955322,186.031860 729.967651,188.524887 
	C721.465027,199.189362 695.825500,199.546494 687.331909,187.890533 
	C684.278320,183.699890 682.520081,179.036102 682.995605,172.906448 
	C683.035950,152.713730 683.066956,133.342743 683.268066,113.853027 
	C683.652405,113.555099 683.831909,113.346031 684.442993,113.043472 
	C696.474670,112.979843 708.040100,112.979843 719.967651,112.979843 
	C719.967651,127.907082 719.927856,142.172928 720.005859,156.438126 
	C720.019287,158.884933 720.534790,161.328995 720.818359,163.774323 
	C722.014893,166.027557 722.860046,168.746399 726.359619,167.935181 
	C730.234863,167.036880 732.490112,164.660126 733.233765,160.158051 
	C733.702332,159.427521 733.871582,159.179001 733.982422,158.890671 
z"/>
<path fill="#1E69A5" opacity="1.000000" stroke="none" 
	d="
M455.962341,161.483200 
	C459.642639,171.370163 465.131744,173.831238 472.848236,169.057907 
	C472.986115,168.972610 473.245209,168.990784 473.303619,168.882736 
	C478.063538,160.080109 484.427551,166.556747 489.894531,167.476440 
	C495.601929,168.436554 501.082733,170.743668 506.988647,172.562302 
	C505.582825,180.263016 501.000336,185.312698 494.774780,189.209961 
	C486.323364,194.500610 476.732086,196.909866 467.157898,196.815308 
	C451.814148,196.663757 437.002502,193.445145 426.770538,180.278915 
	C422.777252,175.140442 420.990234,169.009872 419.824890,162.561874 
	C418.108551,153.065414 419.205383,143.868271 422.552246,135.106705 
	C426.053497,125.940834 432.587952,118.843628 441.782471,115.184502 
	C457.372192,108.980278 473.297913,108.755219 488.477203,116.230125 
	C504.642029,124.190323 511.656281,142.485336 507.422607,158.538300 
	C491.846191,158.975677 476.797150,158.954391 461.748718,159.041748 
	C459.827698,159.052887 457.909973,159.630676 455.967529,160.329956 
	C455.950348,160.970383 455.956329,161.226791 455.962341,161.483200 
M471.945251,145.459183 
	C470.752411,137.349228 470.133453,136.752304 463.182007,137.007751 
	C458.680786,137.173141 457.258118,139.321594 456.692474,147.327148 
	C461.644226,146.843628 466.498810,146.369583 471.945251,145.459183 
z"/>
<path fill="#1E69A5" opacity="1.000000" stroke="none" 
	d="
M599.837402,180.549438 
	C590.654480,191.496338 579.039368,195.707169 565.272217,196.212082 
	C550.533630,196.752625 536.742859,194.826309 525.336365,184.810638 
	C518.532593,178.836426 514.863770,170.961609 515.026489,161.702560 
	C515.154968,154.394318 514.736877,146.939499 516.046204,139.822937 
	C517.758179,130.517761 522.407959,122.587082 531.297363,117.829231 
	C545.090576,110.446709 559.421326,109.405258 574.613281,112.614777 
	C586.004028,115.021240 595.017517,120.101929 600.739502,130.384583 
	C601.680969,132.076508 602.697632,133.991272 602.746521,135.827881 
	C602.782776,137.191071 601.591614,139.481461 600.462708,139.842056 
	C589.743286,143.266174 578.920166,146.365631 568.413940,149.473541 
	C567.555725,146.152267 567.108765,143.389221 566.108459,140.843567 
	C565.116089,138.317963 563.268005,135.824738 560.178528,137.101669 
	C557.856201,138.061508 554.400024,140.077362 554.255798,141.851410 
	C553.622559,149.637711 553.802551,157.515198 554.109497,165.343094 
	C554.280640,169.705292 557.946289,171.247711 561.470520,170.814987 
	C565.410217,170.331253 567.956238,166.765610 567.677307,163.137878 
	C567.327026,158.581421 569.176270,159.934158 571.523438,160.684280 
	C580.512390,163.557022 589.474976,166.528290 598.542297,169.132309 
	C602.427551,170.248108 603.659058,171.926651 601.731689,175.635193 
	C600.984558,177.072601 600.566040,178.680740 599.837402,180.549438 
z"/>
<path fill="#1D68A5" opacity="1.000000" stroke="none" 
	d="
M828.842407,111.959702 
	C833.146301,112.316864 837.447449,112.712418 841.755249,113.012894 
	C843.556396,113.138527 845.371643,113.062256 847.639771,113.591476 
	C848.032104,121.993507 847.965271,129.881851 847.439697,137.828964 
	C840.775208,137.887741 834.569336,137.887741 827.571350,137.887741 
	C828.007141,147.682983 828.407593,156.685287 828.808105,165.687576 
	C830.548279,171.404968 835.172241,171.925430 843.044861,170.336441 
	C848.811096,169.172623 848.776794,168.880524 849.032227,174.850143 
	C849.221924,179.286377 849.816895,183.711746 849.845398,188.144440 
	C849.853943,189.471497 848.873169,191.611298 847.820251,192.017776 
	C832.009888,198.121475 816.002869,199.187943 800.836304,190.723495 
	C794.477234,187.174500 790.110535,180.957947 790.989929,171.878754 
	C790.980042,161.793289 791.005859,152.505859 790.887329,143.220276 
	C790.865601,141.516769 790.257935,139.820755 789.469360,138.046661 
	C785.467834,137.972015 781.917664,137.972015 778.204285,137.972015 
	C778.204285,129.127029 778.204285,121.075790 778.204285,113.024544 
	C781.938660,112.661964 785.673035,112.299385 790.063049,111.873146 
	C790.063049,107.283775 790.046387,102.866516 790.069092,98.449455 
	C790.083252,95.696892 791.323669,94.515472 794.212219,93.787514 
	C804.874573,91.100403 815.419067,87.945915 826.756165,85.223900 
	C827.658875,89.940971 827.758728,94.404045 827.983337,98.860832 
	C828.203613,103.230461 828.550903,107.593681 828.842407,111.959702 
z"/>
<path fill="#1D68A5" opacity="1.000000" stroke="none" 
	d="
M644.837036,116.918259 
	C644.837036,120.868584 644.837036,124.818901 644.837036,129.917343 
	C647.258789,125.843132 649.290527,122.899445 650.840942,119.720955 
	C654.412659,112.398491 668.948608,107.950851 675.739807,112.482460 
	C676.930725,113.277115 678.028809,115.407471 677.893982,116.797142 
	C677.043518,125.560585 675.833130,134.289108 674.664307,143.647827 
	C664.760925,141.301666 655.231323,139.870377 648.776611,151.020554 
	C648.173157,165.700409 648.025696,179.758972 647.421753,193.886078 
	C635.001282,193.930161 623.037354,193.905701 611.036743,193.421295 
	C611.022034,166.341156 611.043823,139.720963 611.526611,113.040352 
	C622.524048,112.979935 633.060486,112.979935 643.342957,112.979935 
	C643.937073,114.546021 644.387085,115.732140 644.837036,116.918259 
z"/>
<path fill="#BED4E5" opacity="1.000000" stroke="none" 
	d="
M736.917358,194.315033 
	C747.919739,193.927643 759.170776,193.927643 770.716919,193.927643 
	C770.716919,166.907852 770.716919,140.251862 770.716919,112.993477 
	C759.046936,112.993477 747.479187,112.993477 735.057617,113.239670 
	C734.177551,127.642342 734.151184,141.798828 734.124878,155.955307 
	C734.050598,156.395035 733.976257,156.834778 733.858887,157.607574 
	C733.545593,157.405380 733.041016,156.870789 733.039429,156.334717 
	C732.996643,141.713013 733.005249,127.091110 733.005249,112.236542 
	C746.002563,112.236542 758.739990,112.236542 771.737183,112.236542 
	C771.737183,139.612686 771.737183,167.007706 771.737183,194.702438 
	C760.297607,194.702438 748.731812,194.702438 736.917358,194.315033 
z"/>
<path fill="#EAB144" opacity="1.000000" stroke="none" 
	d="
M265.210327,4.266473 
	C265.589630,15.798804 265.673615,27.543650 265.856354,39.766586 
	C265.955109,40.244682 266.033447,40.489868 265.727905,40.975517 
	C265.336395,55.992882 265.250427,70.524597 265.134613,85.520447 
	C265.074005,101.584740 265.073608,117.185097 264.969421,132.784744 
	C264.957916,134.501648 264.351257,136.214554 264.020599,137.929321 
	C264.015076,95.194733 263.998749,52.460129 264.042542,9.725591 
	C264.044312,7.976430 264.611359,6.227844 265.210327,4.266473 
z"/>
<path fill="#84ACCD" opacity="1.000000" stroke="none" 
	d="
M310.069611,87.972260 
	C310.045837,122.682976 310.022034,157.393692 310.031006,192.785583 
	C310.063812,193.466736 310.127777,193.890518 309.881165,193.918671 
	C309.634552,193.946808 309.139496,193.983337 309.139496,193.983337 
	C309.101471,158.639404 309.063446,123.295464 309.325043,87.498634 
	C309.624664,87.045738 310.112183,87.075455 310.063202,87.297836 
	C310.014221,87.520218 310.069611,87.972260 310.069611,87.972260 
z"/>
<path fill="#C2D6E6" opacity="1.000000" stroke="none" 
	d="
M720.852295,163.322845 
	C720.534790,161.328995 720.019287,158.884933 720.005859,156.438126 
	C719.927856,142.172928 719.967651,127.907082 719.967651,112.979843 
	C708.040100,112.979843 696.474670,112.979843 684.229248,112.992119 
	C683.549194,113.004395 683.114319,113.068359 682.870667,113.050598 
	C682.627014,113.032829 682.139038,113.008057 682.139038,113.008057 
	C682.912598,112.675056 683.684753,112.055885 684.460022,112.051926 
	C696.439636,111.990555 708.419678,112.009071 720.886230,112.009071 
	C720.886230,129.044052 720.886230,145.957703 720.852295,163.322845 
z"/>
<path fill="#0F5E9F" opacity="1.000000" stroke="none" 
	d="
M127.753906,146.981827 
	C113.423805,146.844147 99.093719,146.706467 84.538895,146.098785 
	C84.356606,145.431793 84.399048,145.234802 84.441483,145.037811 
	C84.441483,145.037811 84.611267,144.881927 85.176651,145.031067 
	C99.874336,145.118774 114.006645,145.057358 128.138947,144.995941 
	C128.138947,144.995941 128.021118,144.988449 127.909012,145.269653 
	C127.782570,146.027863 127.768234,146.504837 127.753906,146.981827 
z"/>
<path fill="#6296BF" opacity="1.000000" stroke="none" 
	d="
M611.065674,113.100769 
	C611.043823,139.720963 611.022034,166.341156 610.806458,193.455414 
	C610.612732,193.949478 610.148438,193.984665 610.148438,193.984665 
	C610.108276,167.301956 610.068115,140.619247 610.318604,113.487122 
	C610.609192,113.037720 611.065674,113.100769 611.065674,113.100769 
z"/>
<path fill="#F6DEB1" opacity="1.000000" stroke="none" 
	d="
M263.552490,137.961121 
	C264.351257,136.214554 264.957916,134.501648 264.969421,132.784744 
	C265.073608,117.185097 265.074005,101.584740 265.301453,85.507935 
	C265.498138,85.031281 265.833008,85.012749 265.833008,85.012749 
	C265.833008,102.869820 265.833008,120.726898 265.833008,139.008698 
	C260.068298,139.008698 254.479767,139.008698 248.414215,138.754990 
	C247.937180,138.501282 247.905060,138.170975 247.905060,138.170975 
	C252.964844,138.111618 258.024628,138.052261 263.552490,137.961121 
z"/>
<path fill="#ABC7DD" opacity="1.000000" stroke="none" 
	d="
M310.112183,87.075455 
	C310.112183,87.075455 309.624664,87.045738 309.380829,87.034348 
	C309.901306,86.683304 310.665436,86.047714 311.429993,86.047157 
	C331.819946,86.032356 352.209930,86.082924 372.806000,86.503502 
	C352.644897,86.913635 332.277679,86.942650 311.228088,86.989029 
	C310.545715,87.006378 310.112183,87.075455 310.112183,87.075455 
z"/>
<path fill="#9DBDD8" opacity="1.000000" stroke="none" 
	d="
M682.080322,113.471848 
	C682.139038,113.008057 682.627014,113.032829 682.826172,113.275711 
	C683.025330,113.518585 683.097961,113.971741 683.097961,113.971741 
	C683.066956,133.342743 683.035950,152.713730 682.951904,172.552597 
	C682.595947,171.858170 682.032166,170.696518 682.029358,169.533478 
	C681.984375,151.000992 682.011108,132.468292 682.080322,113.471848 
z"/>
<path fill="#DEF2FC" opacity="1.000000" stroke="none" 
	d="
M128.414322,137.891464 
	C127.984032,118.672813 127.944763,99.244759 127.965469,79.342934 
	C128.351059,79.534218 128.961334,80.199471 128.960831,80.864265 
	C128.946625,99.803558 128.870987,118.742798 128.414322,137.891464 
z"/>
<path fill="#FEFEFE" opacity="1.000000" stroke="none" 
	d="
M134.616760,85.046555 
	C135.064301,102.273277 135.122375,119.723083 135.070389,137.636978 
	C134.643753,137.595139 134.049988,137.088806 134.050690,136.583313 
	C134.074631,119.478691 134.155060,102.374168 134.616760,85.046555 
z"/>
<path fill="#0A5B9D" opacity="1.000000" stroke="none" 
	d="
M455.990723,159.945953 
	C457.909973,159.630676 459.827698,159.052887 461.748718,159.041748 
	C476.797150,158.954391 491.846191,158.975677 507.350952,158.955475 
	C507.836548,159.132736 507.866302,159.317978 507.406250,159.776978 
	C489.941162,160.015823 472.965942,159.980881 455.990723,159.945953 
z"/>
<path fill="#6F9DC5" opacity="1.000000" stroke="none" 
	d="
M455.967529,160.329956 
	C472.965942,159.980881 489.941162,160.015823 507.373810,160.056549 
	C506.330109,160.375580 504.830566,160.952438 503.327637,160.961395 
	C487.830231,161.053635 472.332306,161.054092 456.398438,161.281647 
	C455.956329,161.226791 455.950348,160.970383 455.967529,160.329956 
z"/>
<path fill="#E9F6FD" opacity="1.000000" stroke="none" 
	d="
M185.456573,144.111496 
	C183.493164,144.502014 181.071136,145.108826 178.645264,145.124634 
	C164.378464,145.217606 150.110748,145.172791 135.378510,145.073364 
	C136.069443,144.646591 137.224442,144.040695 138.381134,144.037476 
	C153.919342,143.994156 169.457779,144.034897 185.456573,144.111496 
z"/>
<path fill="#D2E0EC" opacity="1.000000" stroke="none" 
	d="
M828.836426,165.242737 
	C828.407593,156.685287 828.007141,147.682983 827.571350,137.887741 
	C834.569336,137.887741 840.775208,137.887741 847.676331,137.886261 
	C848.371582,137.884781 848.854614,137.946564 848.854614,137.946564 
	C845.942322,138.304459 843.038452,138.825928 840.115479,138.977859 
	C836.647583,139.158112 833.163208,139.020248 828.864746,139.020248 
	C828.864746,147.696442 828.864746,156.247162 828.836426,165.242737 
z"/>
<path fill="#FEFCF7" opacity="1.000000" stroke="none" 
	d="
M135.107483,138.425171 
	C150.307327,138.014984 165.718994,137.994278 181.600342,138.025940 
	C181.393814,138.383926 180.717407,138.956345 180.041351,138.955933 
	C165.133972,138.947083 150.226639,138.874802 135.107483,138.425171 
z"/>
<path fill="#F8FCFE" opacity="1.000000" stroke="none" 
	d="
M82.491585,138.907074 
	C83.756264,138.522247 85.482018,137.949875 87.210754,137.940735 
	C100.524605,137.870300 113.839027,137.909042 127.625679,137.965591 
	C126.609489,138.344437 125.122261,138.948166 123.632080,138.955582 
	C110.073029,139.023041 96.513458,138.986542 82.491585,138.907074 
z"/>
<path fill="#F3D295" opacity="1.000000" stroke="none" 
	d="
M265.914185,84.549477 
	C265.833008,85.012749 265.498138,85.031281 265.331299,85.043793 
	C265.250427,70.524597 265.336395,55.992882 265.653381,41.080467 
	C265.921417,55.161915 265.958374,69.624062 265.914185,84.549477 
z"/>
<path fill="#F5F8FA" opacity="1.000000" stroke="none" 
	d="
M647.878296,193.817551 
	C648.025696,179.758972 648.173157,165.700409 648.590454,151.314941 
	C648.858459,165.529556 648.856506,180.071045 648.412476,194.470688 
	C647.939758,194.158417 647.908997,193.987976 647.878296,193.817551 
z"/>
<path fill="#EBF1F7" opacity="1.000000" stroke="none" 
	d="
M127.923065,144.606018 
	C114.006645,145.057358 99.874336,145.118774 85.264267,145.105927 
	C85.457451,144.689514 86.128654,144.048691 86.799309,144.049271 
	C100.435310,144.060822 114.071243,144.145813 127.923065,144.606018 
z"/>
<path fill="#C1D5E5" opacity="1.000000" stroke="none" 
	d="
M376.113708,194.426819 
	C389.468994,193.920639 403.035645,193.802155 416.845612,193.316574 
	C419.431763,196.438629 415.882660,194.905777 415.162231,194.916763 
	C406.861786,195.043167 398.558655,195.018661 390.256378,194.990112 
	C385.612488,194.974136 380.968842,194.875763 376.113708,194.426819 
z"/>
<path fill="#DCE8F1" opacity="1.000000" stroke="none" 
	d="
M778.004028,112.670967 
	C778.204285,121.075790 778.204285,129.127029 778.204285,137.972015 
	C781.917664,137.972015 785.467834,137.972015 789.459534,138.279236 
	C789.901062,138.586456 789.948730,139.049622 789.948730,139.049622 
	C785.830872,139.049622 781.713013,139.049622 777.803772,139.049622 
	C777.803772,130.009003 777.803772,121.163200 778.004028,112.670967 
z"/>
<path fill="#BED4E5" opacity="1.000000" stroke="none" 
	d="
M611.526611,113.040352 
	C611.065674,113.100769 610.609192,113.037720 610.379517,113.022415 
	C610.590576,112.674843 611.030029,112.054558 611.472412,112.052406 
	C622.522278,111.998764 633.572449,112.010300 644.968201,112.010300 
	C644.968201,113.508629 644.968201,114.767776 644.902588,116.472588 
	C644.387085,115.732140 643.937073,114.546021 643.342957,112.979935 
	C633.060486,112.979935 622.524048,112.979935 611.526611,113.040352 
z"/>
<path fill="#C1D5E5" opacity="1.000000" stroke="none" 
	d="
M647.421753,193.886078 
	C647.908997,193.987976 647.939758,194.158417 647.991577,194.587723 
	C635.465698,194.843704 622.918762,194.840805 610.260132,194.411285 
	C610.148438,193.984665 610.612732,193.949478 610.843018,193.915375 
	C623.037354,193.905701 635.001282,193.930161 647.421753,193.886078 
z"/>
<path fill="#C1D5E5" opacity="1.000000" stroke="none" 
	d="
M309.246765,194.411346 
	C309.139496,193.983337 309.634552,193.946808 310.093018,193.953247 
	C310.551483,193.959702 310.969574,193.862183 310.969574,193.862183 
	C322.012604,193.906845 333.055664,193.951523 344.785217,193.973419 
	C345.471741,193.950638 345.911499,193.857330 346.143585,193.903778 
	C346.375671,193.950211 346.847504,193.988388 346.847504,193.988373 
	C346.243347,194.323761 345.639343,194.951065 345.035004,194.951385 
	C333.141357,194.957642 321.247681,194.891068 309.246765,194.411346 
z"/>
<path fill="#D5E3EE" opacity="1.000000" stroke="none" 
	d="
M127.828362,147.446411 
	C127.768234,146.504837 127.782570,146.027863 127.913269,145.210785 
	C128.354843,145.708481 128.962082,146.546082 128.962708,147.384125 
	C128.971252,158.838409 128.895981,170.292740 128.813019,182.185120 
	C128.502975,173.870651 128.202576,165.118683 127.950356,156.365341 
	C127.869209,153.549103 127.915062,150.729202 127.828362,147.446411 
z"/>
<path fill="#5B91BD" opacity="1.000000" stroke="none" 
	d="
M346.909515,193.526306 
	C346.847504,193.988388 346.375671,193.950211 346.159363,193.701248 
	C345.943054,193.452286 345.920349,193.046677 345.920349,193.046677 
	C346.115845,181.914368 346.311340,170.782043 346.788330,159.348740 
	C347.037048,170.386566 347.004272,181.725403 346.909515,193.526306 
z"/>
<path fill="#96B9D5" opacity="1.000000" stroke="none" 
	d="
M789.973022,139.515472 
	C789.948730,139.049622 789.901062,138.586456 789.910889,138.353882 
	C790.257935,139.820755 790.865601,141.516769 790.887329,143.220276 
	C791.005859,152.505859 790.980042,161.793289 790.952087,171.547882 
	C790.598816,170.701187 790.046570,169.388733 790.036011,168.071915 
	C789.960999,158.708893 789.996826,149.344955 789.973022,139.515472 
z"/>
<path fill="#72C9F1" opacity="1.000000" stroke="none" 
	d="
M248.855896,145.547409 
	C239.319672,145.800201 229.567932,145.671265 219.460602,145.358704 
	C228.950150,145.171936 238.795258,145.168808 248.855896,145.547409 
z"/>
<path fill="#D2E0EC" opacity="1.000000" stroke="none" 
	d="
M828.914307,111.496643 
	C828.550903,107.593681 828.203613,103.230461 827.983337,98.860832 
	C827.758728,94.404045 827.658875,89.940971 827.126709,85.264290 
	C829.477295,82.752220 828.983521,85.128716 828.986511,86.624435 
	C829.002869,94.760780 828.989441,102.897186 828.914307,111.496643 
z"/>
<path fill="#FDF7ED" opacity="1.000000" stroke="none" 
	d="
M247.443832,138.142090 
	C247.905060,138.170975 247.937180,138.501282 247.951141,138.666611 
	C238.747681,138.826889 229.530258,138.821854 220.099701,138.428192 
	C228.918579,138.064117 237.950592,138.088669 247.443832,138.142090 
z"/>
<path fill="#FEFEFE" opacity="1.000000" stroke="none" 
	d="
M134.616852,150.048859 
	C135.067322,158.638199 135.128250,167.449554 135.111969,176.739746 
	C134.690048,175.381424 134.062729,173.546143 134.050583,171.706802 
	C134.003418,164.562180 134.151749,157.416290 134.616852,150.048859 
z"/>
<path fill="#5B91BD" opacity="1.000000" stroke="none" 
	d="
M848.915039,137.488266 
	C848.854614,137.946564 848.371582,137.884781 848.135010,137.827484 
	C847.965271,129.881851 848.032104,121.993507 848.112854,113.648552 
	C848.414551,118.665718 848.742798,124.137817 848.971802,129.614059 
	C849.075012,132.081772 848.980408,134.557739 848.915039,137.488266 
z"/>
<path fill="#055398" opacity="1.000000" stroke="none" 
	d="
M733.751709,158.983246 
	C733.871582,159.179001 733.702332,159.427521 733.302246,159.782379 
	C733.066650,159.555618 733.197021,159.271378 733.751709,158.983246 
z"/>
<path fill="#E9F6FD" opacity="1.000000" stroke="none" 
	d="
M134.891342,145.000427 
	C135.132339,144.962936 134.657776,145.031235 134.657776,145.031235 
	C134.657776,145.031235 134.504730,145.483093 134.339661,145.644592 
	C134.134674,145.427322 134.293259,145.171265 134.891342,145.000427 
z"/>
<path fill="#4A85B7" opacity="1.000000" stroke="none" 
	d="
M84.074463,145.017273 
	C84.399048,145.234802 84.356606,145.431793 84.182220,145.901245 
	C83.788101,145.968597 83.525925,145.763474 83.125198,145.349899 
	C83.226921,145.093201 83.467186,145.044968 84.074463,145.017273 
z"/>
<path fill="#000000" opacity="1.000000" stroke="none" 
	d="
M901.101929,170.374756 
	C896.063843,172.095428 893.766663,168.248764 893.489319,165.338699 
	C892.767334,157.760757 892.895935,150.029953 893.524231,142.429520 
	C893.785583,139.269470 896.330627,136.108841 900.464294,137.170609 
	C904.649963,138.245712 906.201782,142.016083 906.566589,145.755981 
	C907.087097,151.092056 907.067383,156.514145 906.828186,161.879425 
	C906.667358,165.486267 904.279053,168.084183 901.101929,170.374756 
z"/>
<path fill="#000000" opacity="1.000000" stroke="none" 
	d="
M346.972595,121.115646 
	C346.984985,113.003075 346.999390,112.722069 354.490082,113.105873 
	C358.978882,113.335861 363.522491,114.244843 367.839783,115.527451 
	C371.369415,116.576050 373.157898,119.255859 373.147858,123.417290 
	C373.137512,127.710495 371.265350,130.478928 367.655212,131.753555 
	C364.193176,132.975891 360.434784,133.504608 356.759369,133.930817 
	C353.824005,134.271225 350.817657,133.999542 346.972595,133.999542 
	C346.972595,129.711380 346.972595,125.654312 346.972595,121.115646 
z"/>
<path fill="#0F5E9F" opacity="1.000000" stroke="none" 
	d="
M310.063202,87.297836 
	C310.112183,87.075455 310.545715,87.006378 310.761230,87.048111 
	C310.830536,87.337486 310.645874,87.552025 310.246155,87.852852 
	C310.069611,87.972260 310.014221,87.520218 310.063202,87.297836 
z"/>
<path fill="#0F5E9F" opacity="1.000000" stroke="none" 
	d="
M310.848145,193.703842 
	C310.969574,193.862183 310.551483,193.959702 310.339630,193.925110 
	C310.127777,193.890518 310.063812,193.466736 310.087860,193.253830 
	C310.343231,193.176971 310.548157,193.345169 310.848145,193.703842 
z"/>
<path fill="#0F5E9F" opacity="1.000000" stroke="none" 
	d="
M345.751831,193.158569 
	C345.920349,193.046677 345.943054,193.452286 345.927277,193.654816 
	C345.911499,193.857330 345.471741,193.950638 345.251526,193.905579 
	C345.185486,193.635941 345.369476,193.439255 345.751831,193.158569 
z"/>
<path fill="#055398" opacity="1.000000" stroke="none" 
	d="
M734.336060,155.605347 
	C734.151184,141.798828 734.177551,127.642342 734.591187,113.301048 
	C734.834717,127.162621 734.691040,141.209000 734.336060,155.605347 
z"/>
<path fill="#0F5E9F" opacity="1.000000" stroke="none" 
	d="
M683.268066,113.853027 
	C683.097961,113.971741 683.025330,113.518585 683.069824,113.293472 
	C683.114319,113.068359 683.549194,113.004395 683.762939,113.055756 
	C683.831909,113.346031 683.652405,113.555099 683.268066,113.853027 
z"/>
<path fill="#000000" opacity="1.000000" stroke="none" 
	d="
M471.649323,145.677368 
	C466.498810,146.369583 461.644226,146.843628 456.692474,147.327148 
	C457.258118,139.321594 458.680786,137.173141 463.182007,137.007751 
	C470.133453,136.752304 470.752411,137.349228 471.649323,145.677368 
z"/>
</svg>